<svg viewBox="127.5 90 322.49999999999994 509.99999999999994" fill="none" xmlns="http://www.w3.org/2000/svg" xmlns:xlink="http://www.w3.org/1999/xlink" overflow="visible" width="322.49999999999994px" height="509.99999999999994px"><g id="Master/Hands/Show"><g id="base"><path id="Path" d="M439.61 240.732C426.519 229.687 406.456 229.461 389.738 238.02C388.533 238.639 387.291 239.299 385.963 240.023C381.599 233.952 371.682 232.643 363.058 234.927C359.602 235.846 355.474 237.376 350.455 239.522C349.067 240.115 347.616 240.753 346.041 241.461C343.953 242.399 337.088 245.558 335.87 246.106C330.21 248.646 324.468 251.278 316.218 255.099C315.423 255.467 314.59 255.853 313.636 256.295C301.811 261.777 301.367 261.982 297.006 263.982C284.344 269.789 266.342 278.971 253.693 286.055C250.154 288.044 244.204 291.479 236.51 295.962L236.207 296.139C231.726 298.75 226.945 301.548 222.176 304.346C220.507 305.325 218.959 306.234 217.57 307.05C217.269 307.227 217.044 307.36 216.794 307.507C214.776 306.425 210.759 304.272 209.42 303.556C205.965 301.707 203.09 300.175 200.311 298.705C199.442 298.246 198.594 297.798 197.762 297.36C189.965 293.257 183.556 289.989 178.255 287.447C165.151 281.155 159.812 279.021 152.789 277.992C148.33 277.338 144.085 277.502 139.895 278.572C130.074 281.078 126.459 292.743 132.314 302.741C135.79 308.668 140.15 313.524 148.851 321.936C148.913 321.995 151.437 324.431 152.157 325.129C153.401 326.336 154.414 327.331 155.366 328.285C156.287 329.209 157.129 330.073 157.918 330.905C158.711 331.746 163.186 336.451 164.477 337.825C176.712 350.843 183.035 359.63 186.001 369.695C190.694 385.635 191.83 401.728 191.83 432.29C191.83 440.553 192.033 460.33 192.382 488.135C192.423 491.402 192.466 494.752 192.51 498.176C192.659 509.685 192.818 571.519 192.978 583.022C193.033 587.048 193.085 590.745 193.132 594.031C193.148 595.181 193.162 596.198 193.175 597.071C193.187 597.954 193.187 597.954 193.19 598.139C193.206 599.232 194.097 600.11 195.19 600.11H368.52C369.636 600.11 370.536 599.197 370.52 598.081C370.509 597.305 370.509 597.305 370.459 593.813C370.41 590.418 370.356 586.635 370.297 582.561C370.13 570.921 369.963 509.281 369.807 498.417L369.803 498.108C369.522 478.603 369.309 463.834 369.19 455.691C369.051 447.24 368.777 438.383 368.365 428.377C368.048 420.687 367.744 414.286 367.076 400.856C366.275 384.721 365.944 377.711 365.615 369.195C365.93 368.912 366.282 368.597 366.668 368.251C368.065 366.998 369.622 365.596 371.298 364.079C376.087 359.744 380.876 355.353 385.348 351.173C385.89 350.667 386.425 350.166 386.952 349.67C394.846 342.253 400.663 336.494 403.695 332.976C405.638 330.72 407.761 328.371 410.285 325.666C411.464 324.403 412.701 323.093 414.261 321.451C414.93 320.747 417.627 317.916 418.305 317.203C431.688 303.124 438.443 294.9 443.882 284.766C447.205 278.607 446.675 271.093 442.44 266.459C449.011 258.408 447.249 247.179 439.61 240.732Z" fill="#fbd2ae"/><path id="Path" d="M265.321 388.997C266.072 388.955 266.619 388.911 268.07 388.784C268.94 388.708 269.392 388.671 269.903 388.634C272.251 388.467 273.895 388.506 275.316 388.822C276.394 389.062 277.462 388.383 277.702 387.305C277.942 386.226 277.263 385.158 276.185 384.918C274.303 384.499 272.322 384.452 269.62 384.644C269.08 384.683 268.612 384.722 267.721 384.8C266.315 384.923 265.792 384.965 265.099 385.003C263.996 385.064 263.152 386.008 263.213 387.111C263.274 388.214 264.218 389.058 265.321 388.997Z" fill="#fcb7a0"/><path id="Path" d="M259.386 313.345C266.662 311.6 275.614 313.178 284.401 318.381C292.416 323.127 297.089 329.749 300.68 339.228C301.071 340.261 302.225 340.782 303.258 340.39C304.291 339.999 304.811 338.844 304.42 337.812C300.537 327.56 295.358 320.22 286.439 314.939C276.786 309.223 266.777 307.459 258.454 309.455C257.379 309.713 256.717 310.792 256.975 311.866C257.233 312.94 258.312 313.602 259.386 313.345Z" fill="#fcb7a0"/><path id="Path" d="M311 278.8C334.1 278.8 359.213 286.526 378.499 299.403C379.418 300.017 380.66 299.769 381.273 298.851C381.887 297.932 381.639 296.69 380.721 296.077C360.782 282.764 334.896 274.8 311 274.8C309.895 274.8 309 275.695 309 276.8C309 277.905 309.895 278.8 311 278.8Z" fill="#fcb7a0"/><path id="Path" d="M351.801 285.345C353.521 284.269 355.245 283.169 356.979 282.041C367.305 275.329 396.343 254.413 397.707 253.482C411.029 244.386 420.192 239.891 428.825 238.825C429.921 238.69 430.7 237.691 430.565 236.595C430.43 235.499 429.431 234.72 428.335 234.855C418.903 236.02 409.262 240.749 395.452 250.178C394.014 251.16 365.028 272.039 354.799 278.688C353.084 279.803 351.38 280.89 349.679 281.955C348.743 282.541 348.459 283.775 349.045 284.711C349.631 285.647 350.865 285.931 351.801 285.345Z" fill="#fcb7a0"/><path id="Path" d="M328.077 279.144C328.983 278.494 329.822 277.89 331.258 276.857C344.193 267.554 349.735 263.631 357.279 258.538C370.235 249.791 375.171 246.7 384.38 241.86C385.358 241.347 385.734 240.137 385.22 239.16C384.706 238.182 383.497 237.806 382.519 238.32C373.149 243.244 368.11 246.4 355.041 255.222C347.453 260.345 341.89 264.283 328.923 273.61C327.487 274.642 326.648 275.246 325.743 275.896C324.846 276.54 324.641 277.79 325.285 278.687C325.93 279.584 327.18 279.789 328.077 279.144Z" fill="#fcb7a0"/><path id="Path" d="M439.215 265.804C440.167 266.364 441.393 266.046 441.953 265.095C442.514 264.143 442.196 262.917 441.244 262.356C437.901 260.389 434.129 259.265 430.254 259.082L430.126 259.08C427.022 259.133 423.667 260.187 419.916 262.106C417.334 263.427 414.7 265.074 411.405 267.347C411.303 267.417 405.362 271.601 403.916 272.545C388.675 282.518 381.649 287.029 372.799 292.422C371.856 292.997 371.557 294.227 372.132 295.171C372.706 296.114 373.937 296.413 374.88 295.838C383.779 290.416 390.83 285.888 406.105 275.894C407.618 274.905 413.627 270.673 413.676 270.64C416.84 268.457 419.341 266.893 421.737 265.667C424.964 264.016 427.75 263.136 430.131 263.081C433.334 263.242 436.451 264.176 439.215 265.804Z" fill="#fcb7a0"/></g><g id="Show/Wear" transform="scale(1 1)"><g id="Show/Wear/Suit 2"><g id="clothing"><path id="Path" d="M189 420.711C201.82 431.431 212.19 434.911 220.4 436.791C238.28 440.901 263.4 442.361 281.76 441.391C307.47 440.031 331.76 435.721 355.22 424.921C360.52 422.481 370.84 415.851 370.15 416.501C370.15 416.501 372.53 445.651 373.15 460.951C373.69 473.781 373.78 507.261 373.78 507.261C373.78 507.261 331.09 511.951 312.78 515.261C291.97 518.971 271.18 522.261 250.01 524.331C233.89 525.891 196.01 530.681 190.28 512.911C189.58 499.031 189.92 480.691 189.92 466.431C189.94 454.461 189 439.091 189 420.711Z" fill="white"/><path id="Path_2" fill-rule="evenodd" clip-rule="evenodd" d="M372.179 416.775C372.208 417.132 372.241 417.548 372.279 418.02C372.386 419.367 372.506 420.887 372.636 422.549C373.005 427.298 373.374 432.23 373.718 437.09C373.866 439.171 374.006 441.197 374.137 443.159C374.615 450.296 374.964 456.317 375.148 460.866C375.336 465.32 375.481 472.483 375.591 481.62C375.659 487.228 375.709 493.236 375.743 499.244C375.756 501.346 375.765 503.299 375.772 505.051C375.775 505.664 375.777 506.209 375.778 506.678L375.78 507.255C375.783 508.277 375.014 509.137 373.998 509.248C373.924 509.256 373.811 509.269 373.661 509.285C373.54 509.299 373.394 509.315 373.224 509.334C372.942 509.365 372.64 509.399 372.319 509.435C371.919 509.48 371.489 509.528 371.031 509.579C368.669 509.845 366.037 510.146 363.202 510.476C355.102 511.418 347.003 512.402 339.446 513.379C335.555 513.881 331.905 514.37 328.537 514.841C322.233 515.722 317.031 516.524 313.131 517.229C288.736 521.578 269.293 524.454 250.203 526.321C250.071 526.334 249.58 526.382 248.907 526.449L248.906 526.449L248.903 526.45C247.217 526.617 244.395 526.898 243.224 527.009C235.581 527.733 229.44 528.11 223.397 528.102C204.208 528.076 191.748 523.981 188.377 513.524C188.323 513.358 188.291 513.185 188.283 513.011C187.955 506.507 187.831 498.847 187.838 488.73C187.84 485.579 187.851 482.875 187.879 477.575C187.911 471.544 187.92 469.333 187.92 466.427C187.928 461.546 187.873 459.335 187.461 445.793C187.141 435.251 187 428.443 187 420.71C187 419.013 188.981 418.087 190.283 419.176C200.978 428.119 210.055 432.37 220.848 434.841C237.595 438.691 262.249 440.418 281.654 439.393C309.802 437.904 332.899 432.994 354.384 423.103C355.83 422.437 357.79 421.388 360.189 420.012C360.535 419.814 360.889 419.61 361.251 419.399C362.224 418.833 363.232 418.237 364.354 417.567C364.788 417.307 365.224 417.046 365.743 416.733L366.962 416C367.865 415.457 368.362 415.162 368.719 414.958C368.969 414.815 369.14 414.723 369.289 414.655L369.29 414.655C369.323 414.64 369.345 414.63 369.367 414.621C369.407 414.605 369.448 414.59 369.564 414.55L369.564 414.55L369.564 414.55C369.605 414.525 369.638 414.505 369.674 414.491C369.834 414.425 370.04 414.471 371.174 414.72C372.085 415.671 372.196 415.787 372.159 416.534L372.179 416.775ZM191.459 445.672C191.872 459.272 191.928 461.49 191.92 466.43C191.92 469.343 191.911 471.558 191.879 477.596C191.851 482.89 191.84 485.59 191.838 488.732C191.832 498.645 191.95 506.173 192.264 512.537C195.032 520.525 206.013 524.078 223.403 524.102C229.293 524.11 235.319 523.74 242.846 523.027C244.004 522.917 246.803 522.639 248.492 522.471L248.496 522.47C249.179 522.403 249.68 522.353 249.815 522.34C268.783 520.485 288.129 517.623 312.424 513.292C316.381 512.577 321.631 511.767 327.984 510.879C331.366 510.407 335.03 509.916 338.934 509.412C346.51 508.433 354.625 507.447 362.74 506.503C365.579 506.173 368.217 505.871 370.584 505.605C371.005 505.557 371.402 505.513 371.774 505.471L371.772 505.067C371.765 503.317 371.756 501.367 371.744 499.267C371.709 493.267 371.659 487.267 371.592 481.668C371.482 472.57 371.337 465.436 371.152 461.031C370.969 456.521 370.622 450.531 370.146 443.426C370.015 441.47 369.875 439.449 369.728 437.373C369.384 432.523 369.016 427.6 368.648 422.859C368.563 421.776 368.483 420.753 368.408 419.799L367.805 420.161C367.282 420.476 366.844 420.739 366.406 421C365.272 421.678 364.25 422.282 363.262 422.857C362.892 423.072 362.531 423.28 362.179 423.482C359.684 424.912 357.635 426.01 356.056 426.737C334.066 436.86 310.484 441.874 281.866 443.387C262.108 444.431 237.086 442.678 219.954 438.74C209.705 436.393 200.857 432.493 191.015 424.897C191.058 431.018 191.199 437.104 191.459 445.672ZM368.716 415.106C368.695 415.128 368.675 415.15 368.655 415.172L368.716 415.106C368.716 415.106 368.716 415.106 368.716 415.106ZM368.716 415.106C368.736 415.085 368.757 415.065 368.778 415.045C368.753 415.068 368.738 415.081 368.716 415.106ZM368.778 415.045C368.778 415.045 368.778 415.045 368.779 415.044L368.779 415.044C368.778 415.045 368.778 415.045 368.778 415.045Z" fill="#D7E0DC"/><path id="Path_3" fill-rule="evenodd" clip-rule="evenodd" d="M356.135 466.43L356.112 466.588C355.84 469.134 356.293 471.705 357.417 474.005C359.651 478.749 363.948 480.42 367.521 476.178C370.875 472.194 370.883 463.939 367.51 459.999C364.935 456.981 361.758 457.113 359.359 459.707C357.808 461.383 356.569 464.126 356.135 466.43ZM361.031 472.29L361.016 472.259C360.23 470.657 359.907 468.867 360.081 467.092C360.399 465.492 361.315 463.482 362.295 462.423C363.141 461.509 363.527 461.493 364.469 462.598C366.565 465.046 366.559 471.11 364.461 473.602C363.162 475.144 362.192 474.765 361.031 472.29Z" fill="#D7E0DC"/><path id="Path_4" d="M386.05 567.13C385.85 557.77 385.65 548.13 385.67 541.36C385.67 531.29 384.44 489.62 384.43 489.2C384.411 488.534 384.061 487.921 383.497 487.566C382.933 487.211 382.229 487.16 381.62 487.43C358.16 497.82 336.74 499.51 311.94 501.43L307.41 501.79C290.29 503.16 270.29 502.07 252.65 501.11C249.67 500.943 246.753 500.787 243.9 500.64C229.819 499.785 215.837 497.721 202.11 494.47C195.673 492.564 189.592 489.615 184.11 485.74C183.5 485.264 182.671 485.182 181.98 485.53C181.284 485.88 180.855 486.602 180.88 487.38C180.88 487.81 181.88 530.82 181.75 541.38C181.55 553.22 181.75 598.38 181.75 599.96H386.43C386.43 593.46 386.24 576.07 386.05 567.13Z" fill="#303030"/></g></g></g><g id="Show/Item" transform="scale(1 1)"><g id="Show/Item/Camera"><g id="items"><path id="Path" d="M243.402 127.736C241.919 127.916 240.769 126.466 241.283 125.062C241.463 124.571 241.52 123.721 241.53 121.696L241.531 121.59C241.547 118.412 241.672 117.19 242.47 115.971C243.787 113.889 245.953 112.982 249.13 112.554C249.764 112.469 250.014 112.444 251.386 112.317C252.098 112.251 252.497 112.207 252.865 112.152C263.603 110.55 265.202 111.989 265.609 123.188C265.647 124.226 264.884 125.12 263.852 125.246L243.402 127.736Z" fill="#3B4B4C"/><path id="Path_2" d="M352.641 254.766C335.401 255.895 322.263 256.786 317.291 257.184C315.41 257.335 314.089 257.444 310.426 257.746C297.807 258.788 291.934 259.227 284.768 259.596C266.045 260.56 250.906 260.056 236.484 257.54C228.879 256.202 223.977 251.776 221.45 244.814C219.497 239.434 218.998 232.931 219.433 224.377C219.811 217.028 219.912 211.311 219.989 198.576C220.005 195.892 220.013 194.68 220.025 193.18C220.126 180.821 220.412 172.567 221.189 163.833C221.352 161.991 221.402 160.31 221.449 156.392C221.486 153.37 221.512 152.062 221.583 150.37C221.998 140.61 223.791 134.312 228.563 130.238C231.842 127.441 236.426 125.77 242.475 124.722C244.034 124.452 245.661 124.228 247.529 124.013C248.255 123.93 248.991 123.851 249.905 123.757C250.181 123.728 251.699 123.574 252.114 123.531C277.473 120.897 300.972 120.127 322.787 121.524C324.84 121.654 327.542 121.806 331.276 122.006C333.502 122.125 342.18 122.581 341.861 122.564C343.283 122.64 344.539 122.706 345.726 122.77C347.762 122.88 349.571 122.979 351.224 123.073C360.347 123.543 367.629 130.849 368.068 139.975C368.994 159.353 369.737 177.638 370.15 193.258C370.384 202.321 370.243 209.373 369.745 221.533C369.374 230.619 369.289 233.057 369.251 237.188C369.17 246.492 361.926 254.158 352.641 254.766Z" fill="#5F8083"/><path id="Path_3" d="M248.652 133.731C249.313 150.01 249.663 160.739 249.72 169.443C249.769 174.714 249.778 179.183 249.762 184.916C249.758 186.259 249.756 186.876 249.745 189.941C249.727 194.706 249.72 197.396 249.72 200.79C249.72 206.503 249.671 211.02 249.523 220.914C249.498 222.595 249.488 223.257 249.476 224.149C249.317 235.094 249.278 241.841 249.381 249.208C249.396 250.312 250.304 251.195 251.408 251.18C252.513 251.165 253.396 250.257 253.38 249.152C253.279 241.833 253.317 235.117 253.475 224.207C253.488 223.316 253.498 222.654 253.523 220.974C253.67 211.06 253.72 206.529 253.72 200.79C253.72 197.402 253.727 194.716 253.745 189.956C253.756 186.89 253.758 186.272 253.762 184.927C253.778 179.179 253.769 174.695 253.72 169.412C253.662 160.651 253.312 149.894 252.649 133.569C252.604 132.465 251.673 131.607 250.569 131.652C249.466 131.697 248.607 132.628 248.652 133.731Z" fill="#3B4B4C"/><path id="Path_4" d="M297.27 227.616C287.869 225.842 279.35 208.662 278.912 194.081C278.715 187.594 280.045 179.31 282.554 172.486C285.632 164.112 290.199 158.385 296.157 156.77C303.597 154.753 325.578 152.354 342.867 151.085C343.334 151.052 343.782 151.019 344.494 150.967C356.103 150.119 360.987 149.906 367.32 150.206C368.15 150.245 368.97 150.295 369.777 150.356C380.849 151.166 392.558 163.039 396.058 176.724C398.416 185.934 398.965 195.677 397.168 203.968C394.961 214.148 389.375 221.724 380.168 225.557C369.806 229.864 361.554 230.733 342.455 230.822C340.225 230.832 339.248 230.838 338.016 230.85C327.044 230.986 305.304 229.132 297.27 227.616Z" fill="#3B4B4C"/><path id="Path_5" d="M364.375 150.092C343.074 151.114 330.625 167.776 330.551 188.633C330.551 200.253 335.534 212.941 343.391 221.088C349.241 227.187 356.562 230.769 364.734 229.683C365.829 229.537 366.599 228.532 366.453 227.437C366.308 226.342 365.302 225.572 364.207 225.718C357.506 226.608 351.33 223.586 346.274 218.316C339.142 210.919 334.551 199.231 334.551 188.64C334.618 169.739 345.633 154.996 364.567 154.088C365.67 154.035 366.521 153.098 366.468 151.994C366.416 150.891 365.478 150.039 364.375 150.092Z" fill="#212D2D"/><path id="Path_6" d="M365.491 156.791C355.276 156.995 348.761 161.394 343.979 169.139C334.311 184.832 338.071 208.529 352.71 218.056C363.86 225.329 378.116 223.471 386.116 213.415C394.025 203.478 395.502 186.74 390.453 173.842C385.972 162.359 377.421 156.552 365.491 156.791Z" fill="#ACC9CC"/><path id="Path_7" d="M386.15 190.57C386.15 190.923 386.157 191.199 386.177 191.793C386.199 192.437 386.205 192.709 386.201 193.036C386.187 194.14 387.072 195.046 388.176 195.06C389.28 195.073 390.187 194.189 390.2 193.084C390.205 192.676 390.198 192.365 390.175 191.66C390.157 191.11 390.15 190.864 390.15 190.57C390.15 189.465 389.255 188.57 388.15 188.57C387.046 188.57 386.15 189.465 386.15 190.57Z" fill="white"/><path id="Path_8" d="M385.652 183.723C385.808 184.817 386.822 185.576 387.915 185.42C389.008 185.264 389.768 184.25 389.612 183.157C388.855 177.871 386.948 172.815 384.026 168.345L383.931 168.213C379.713 162.783 373.031 159.86 366.181 160.447C365.08 160.542 364.265 161.511 364.359 162.611C364.453 163.712 365.422 164.527 366.523 164.433C371.996 163.963 377.334 166.285 380.723 170.604C383.3 174.566 384.982 179.044 385.652 183.723Z" fill="white"/><path id="Path_9" d="M341.349 138.74L349.579 138.87C350.684 138.887 351.593 138.006 351.611 136.902C351.628 135.797 350.747 134.888 349.642 134.87L341.412 134.74C340.308 134.723 339.399 135.604 339.381 136.709C339.364 137.813 340.245 138.723 341.349 138.74Z" fill="#ACC9CC"/><path id="Path_10" d="M363.883 104.153L365.353 96.6233C365.565 95.5392 364.858 94.4888 363.774 94.2772C362.689 94.0655 361.639 94.7728 361.427 95.8569L359.957 103.387C359.746 104.471 360.453 105.521 361.537 105.733C362.621 105.945 363.672 105.237 363.883 104.153Z" fill="#FCD400"/><path id="Path_11" d="M379.741 113.697L387.241 108.817C388.167 108.214 388.429 106.975 387.827 106.049C387.225 105.124 385.986 104.861 385.06 105.464L377.56 110.344C376.634 110.946 376.372 112.185 376.974 113.111C377.577 114.037 378.816 114.299 379.741 113.697Z" fill="#FCD400"/><path id="Path_12" d="M385.988 132.666L393.178 131.806C394.274 131.675 395.057 130.679 394.926 129.582C394.795 128.486 393.799 127.703 392.703 127.834L385.513 128.694C384.416 128.825 383.633 129.821 383.764 130.918C383.896 132.014 384.891 132.797 385.988 132.666Z" fill="#FCD400"/><path id="Path_13" d="M309.826 154.46C305.56 156.147 302.607 161.541 299.35 170.174C297.075 176.435 295.81 182.992 295.592 189.625C295.513 202.355 297.323 211.296 302.402 220.933C304.199 224.051 306.547 226.723 309.348 228.86C310.226 229.53 311.481 229.361 312.151 228.483C312.821 227.605 312.653 226.35 311.774 225.68C309.395 223.864 307.399 221.594 305.904 219.001C301.198 210.068 299.517 201.766 299.591 189.702C299.794 183.544 300.979 177.404 303.101 171.563C305.845 164.29 308.608 159.243 311.297 158.18C312.324 157.774 312.827 156.612 312.421 155.585C312.015 154.558 310.853 154.054 309.826 154.46Z" fill="#212D2D"/><path id="Path_14" d="M329.235 152.289C324.327 153.712 318.456 161.882 315.982 168.39C313.745 174.291 313.091 180.906 313.454 189.316C313.774 200.337 317.014 211.104 322.842 220.495C325.466 224.49 328.836 227.874 332.776 230.487C333.697 231.097 334.938 230.846 335.548 229.926C336.159 229.005 335.908 227.764 334.987 227.153C331.497 224.839 328.513 221.842 326.213 218.342C320.784 209.594 317.752 199.515 317.451 189.172C317.108 181.228 317.713 175.107 319.722 169.809C321.782 164.391 327.024 157.095 330.348 156.131C331.409 155.824 332.02 154.714 331.713 153.654C331.405 152.593 330.296 151.982 329.235 152.289Z" fill="#212D2D"/></g></g></g></g></svg>