<svg viewBox="210 210 180.00000000000017 180.00000000000017" fill="none" xmlns="http://www.w3.org/2000/svg" xmlns:xlink="http://www.w3.org/1999/xlink" overflow="visible" width="180.00000000000017px" height="180.00000000000017px"><g id="Master/Stickers/Camera"><g id="camera"><g id="stickers_expanded"><path id="Path" d="M254.281 235.68C252.181 233.94 249.021 234.26 244.081 235C243.571 235.08 242.991 235.13 242.391 235.19C239.521 235.45 235.601 235.81 233.691 238.83C232.781 240.26 232.781 242.35 232.771 244.55C232.823 245.679 232.743 246.81 232.531 247.92C232.155 248.956 232.687 250.1 233.721 250.48C233.942 250.559 234.176 250.599 234.411 250.6C235.253 250.6 236.005 250.072 236.291 249.28C236.394 248.973 236.475 248.659 236.531 248.34L252.841 246.34C252.963 247.35 253.824 248.108 254.841 248.1C255.371 248.082 255.873 247.854 256.235 247.465C256.597 247.077 256.79 246.561 256.771 246.03C256.621 240.61 256.411 237.45 254.281 235.68Z" fill="#3B4B4C"/><path id="Path_2" d="M361.39 316.06C360.91 297.8 359.99 277.01 359.31 262.77C358.888 253.638 351.592 246.324 342.46 245.88C333.13 245.4 320.62 244.75 314.02 244.34C292.83 243.02 269.02 243.71 243.35 246.34L242.11 246.47C235.11 247.18 225.53 248.16 219.8 253.05C212.94 258.91 212.8 269.64 212.69 279.11C212.69 281.84 212.63 284.41 212.43 286.64C211.36 298.64 211.29 310.2 211.23 321.42C211.23 329.75 211.13 338.42 210.68 347.19C209.96 361.11 211.25 377.46 227.68 380.35C238.221 382.113 248.894 382.956 259.58 382.87C273.69 382.87 287.82 381.7 301.67 380.56L308.49 380C314.24 379.54 330.89 378.43 343.84 377.58C353.124 376.955 360.371 369.304 360.49 360C360.54 355.31 360.73 350.55 360.94 345.51C361.29 337 361.68 327.4 361.39 316.06Z" fill="#5F8083"/><path id="Path_3" d="M242.621 374C241.516 374 240.621 373.105 240.621 372C240.481 361.89 240.621 352.05 240.761 342.54C240.851 336.39 240.941 330.03 240.961 323.54V315.89C240.961 307.83 240.961 301.47 240.961 292.2C240.891 284.05 240.531 272.03 239.891 256.49C239.844 255.386 240.701 254.452 241.806 254.405C242.91 254.358 243.844 255.216 243.891 256.32C244.531 271.91 244.891 283.97 244.961 292.17C245.041 301.46 245.021 307.83 244.961 315.9V323.55C244.961 330.03 244.851 336.41 244.761 342.55C244.621 352.03 244.481 361.84 244.621 371.89C244.621 372.995 243.725 373.89 242.621 373.89V374Z" fill="#3B4B4C"/><path id="Path_4" d="M387.3 299.57C383.79 285.84 372 274 361 273.2C352.59 272.58 344.45 273.2 335.82 273.81L334.09 273.94C326.65 274.48 296.9 277.03 287.37 279.62C274.49 283.11 269.79 305.62 270.13 316.93C270.504 324.144 272.349 331.205 275.55 337.68C279.19 345.04 283.79 349.58 288.49 350.47C295.43 351.77 315.78 353.71 327.96 353.71H329.23H334.03C346.94 353.63 359.13 353.56 371.39 348.45C380.24 344.77 386.12 337.3 388.39 326.87C390.75 316 388.72 305.11 387.3 299.57Z" fill="#3B4B4C"/><path id="Path_5" d="M353.16 352.72C344.49 352.72 337.93 347.36 334.63 343.94C326.79 335.81 321.75 323.07 321.79 311.49C321.85 293.1 332.33 274.06 355.61 272.94C356.143 272.913 356.664 273.099 357.058 273.458C357.452 273.817 357.687 274.318 357.71 274.85C357.761 275.951 356.911 276.886 355.81 276.94C335.15 277.94 325.81 295.01 325.81 311.5C325.81 322.1 330.38 333.74 337.53 341.16C340.66 344.4 347.14 349.68 355.47 348.57C356.575 348.427 357.587 349.206 357.73 350.31C357.874 351.415 357.095 352.427 355.99 352.57C355.051 352.684 354.106 352.734 353.16 352.72V352.72Z" fill="#212D2D"/><path id="Path_6" d="M381.7 296.69V296.69C377.25 285.31 368.61 279.39 356.7 279.64C347.24 279.81 340.21 283.86 335.19 291.99C330.64 299.37 328.88 308.99 330.36 318.35C331.9 328.07 336.84 336.29 343.91 340.91C348.208 343.738 353.236 345.253 358.38 345.27C365.743 345.336 372.729 342.018 377.33 336.27C386.08 325.31 386.14 308.06 381.7 296.69Z" fill="#ACC9CC"/><path id="Path_7" d="M379.441 317.911V317.911C378.336 317.911 377.441 317.015 377.441 315.911C377.441 315.151 377.441 314.351 377.391 313.541C377.357 312.826 377.707 312.148 378.309 311.761C378.91 311.374 379.673 311.338 380.309 311.666C380.944 311.994 381.357 312.636 381.391 313.351C381.441 314.231 381.461 315.111 381.451 315.941C381.434 317.037 380.538 317.916 379.441 317.911Z" fill="white"/><path id="Path_8" d="M378.84 308.281C377.849 308.293 376.999 307.579 376.84 306.601C376.03 301.601 374.15 296.601 371.91 293.481C368.547 289.164 363.234 286.833 357.78 287.281C356.676 287.402 355.682 286.605 355.56 285.501C355.439 284.396 356.236 283.402 357.34 283.281C362.77 282.691 370.66 284.891 375.15 291.121C378.113 295.602 380.049 300.684 380.82 306.001C380.994 307.091 380.251 308.117 379.16 308.291L378.84 308.281Z" fill="white"/><path id="Path_9" d="M340.861 261.721V261.721L332.631 261.601C331.526 261.601 330.631 260.705 330.631 259.601C330.631 258.496 331.526 257.601 332.631 257.601V257.601L340.861 257.721C341.965 257.721 342.861 258.616 342.861 259.721C342.861 260.825 341.965 261.721 340.861 261.721Z" fill="#ACC9CC"/><path id="Path_10" d="M353.161 228.62C353.034 228.63 352.907 228.63 352.781 228.62C352.259 228.519 351.8 228.214 351.503 227.773C351.207 227.332 351.098 226.792 351.201 226.27L352.671 218.74C352.776 218.009 353.276 217.396 353.971 217.145C354.666 216.894 355.442 217.047 355.991 217.542C356.539 218.037 356.77 218.794 356.591 219.51L355.121 227C354.939 227.94 354.118 228.619 353.161 228.62Z" fill="#FCD400"/><path id="Path_11" d="M369.89 236.87C369.212 236.871 368.58 236.529 368.21 235.96C367.92 235.516 367.817 234.975 367.926 234.455C368.035 233.935 368.346 233.48 368.79 233.19L376.3 228.31C377.228 227.708 378.468 227.972 379.07 228.9C379.672 229.828 379.408 231.068 378.48 231.67L371 236.55C370.671 236.767 370.284 236.879 369.89 236.87V236.87Z" fill="#FCD400"/><path id="Path_12" d="M377 255.53C376.286 255.571 375.603 255.228 375.211 254.63C374.818 254.031 374.774 253.269 375.096 252.63C375.417 251.99 376.056 251.571 376.77 251.53L383.96 250.67C384.675 250.586 385.38 250.89 385.81 251.467C386.24 252.043 386.329 252.806 386.045 253.467C385.76 254.127 385.145 254.586 384.43 254.67L377.24 255.53H377Z" fill="#FCD400"/><path id="Path_13" d="M301.801 352.15C301.393 352.149 300.995 352.024 300.661 351.79C297.81 349.625 295.428 346.903 293.661 343.79C288.751 334.4 286.781 325.34 286.861 312.51C287.053 305.849 288.312 299.262 290.591 293C292.791 287.16 296.281 279.19 301.061 277.29C301.725 277.026 302.48 277.136 303.042 277.579C303.603 278.023 303.885 278.732 303.782 279.439C303.678 280.147 303.205 280.746 302.541 281.01C300.851 281.68 298.061 284.54 294.331 294.42C292.221 300.239 291.04 306.354 290.831 312.54C290.771 322.78 291.831 331.7 297.181 341.94C298.661 344.471 300.617 346.692 302.941 348.48C303.666 348.977 303.981 349.888 303.72 350.727C303.458 351.565 302.679 352.135 301.801 352.13V352.15Z" fill="#212D2D"/><path id="Path_14" d="M325.12 353.68C324.769 353.68 324.424 353.586 324.12 353.41C320.121 350.771 316.701 347.345 314.07 343.34C308.259 333.954 305.021 323.204 304.68 312.17C304.42 306.17 304.48 298.44 307.21 291.24C308.61 287.56 314.34 276.91 320.47 275.14C321.507 274.902 322.549 275.516 322.842 276.538C323.135 277.561 322.576 278.634 321.57 278.98C317.79 280.08 312.57 288.46 310.95 292.66C309.03 297.75 308.32 303.66 308.67 312C308.987 322.352 312.026 332.437 317.48 341.24C319.756 344.673 322.681 347.629 326.09 349.94C327.05 350.483 327.39 351.699 326.85 352.66C326.498 353.286 325.838 353.675 325.12 353.68Z" fill="#212D2D"/></g></g></g></svg>